<svg fill="#000000" viewBox="-3.2 -3.2 38.40 38.40" xmlns="http://www.w3.org/2000/svg" stroke="#000000"><g id="SVGRepo_bgCarrier" stroke-width="0" transform="translate(6.4,6.4), scale(0.6)"><path transform="translate(-3.2, -3.2), scale(1.2)" d="M16,26.84866144321859C18.265749318788675,27.73621825002899,20.478950149053404,29.60106628435345,22.84908072800413,29.049833030975606C25.14191429140679,28.51657713535829,27.177006122300973,26.396259814215767,27.755922167891015,24.114527180484384C28.35266575729323,21.76252928323961,25.874720114756027,19.623235208714416,25.85640933718057,17.196784769170872C25.841344530847046,15.200473809738517,28.392161787971503,13.435226775142315,27.661313319082794,11.57744721053767C26.92732020621155,9.71167412117735,23.799925033833713,10.189613666472333,22.499469704529943,8.663615289274968C20.883898082012117,6.76784876915297,21.760222385380494,2.9150436459258415,19.461621249130513,1.955650513403695C17.326148512336314,1.064344124461834,15.514051680277552,4.375218827752437,13.239078503905798,4.7985011630192105C10.766006237449774,5.258641886919307,7.9170441284892465,3.1244345966486033,5.808333154418911,4.495986253984402C3.7828851918862285,5.81338183072239,3.996655533629858,8.877379548967422,3.377276575247439,11.212832451607447C2.810617607569383,13.349497433457886,1.5352547201286808,15.593671709582797,2.316758154565381,17.661446361782485C3.111918674357657,19.765356203767414,5.630178072265284,20.562696103282576,7.423866550749134,21.9196775024151C8.736719936769859,22.912892124680024,10.059629789628907,23.778649801704702,11.486918151638292,24.59895903043464C12.965762589800264,25.448899219656347,14.41181655658548,26.226525969546792,16,26.84866144321859" fill="#F53F5B" strokewidth="0"></path></g><g id="SVGRepo_tracerCarrier" stroke-linecap="round" stroke-linejoin="round"></g><g id="SVGRepo_iconCarrier"><path d="M16 15.503A5.041 5.041 0 1 0 16 5.42a5.041 5.041 0 0 0 0 10.083zm0 2.215c-6.703 0-11 3.699-11 5.5v3.363h22v-3.363c0-2.178-4.068-5.5-11-5.5z"></path></g></svg>