<svg xmlns="http://www.w3.org/2000/svg" fill="#000000" width="256px" height="256px" viewBox="0 0 24.00 24.00" stroke="#000000" stroke-width="0.504"><g id="SVGRepo_bgCarrier" stroke-width="0" transform="translate(4.32,4.32), scale(0.64)"><path transform="translate(0, 0), scale(0.75)" d="M16,28.13764961529523C18.592600919289957,28.178582416333576,20.973274857908482,27.19734684716002,23.29157110680415,26.03598664323522C26.06665316923887,24.645797675163312,29.44372787944631,23.61492043408378,30.696735078628492,20.77525869736347C31.976334292081116,17.87533208309467,31.28047213005807,14.291444165233868,29.68151279987631,11.55460701705757C28.22231011475461,9.056982443388335,25.14891371639108,8.28340710507405,22.5997693996366,6.916196719061295C20.452631167330463,5.7645986427501255,18.398510671093696,4.64505281206724,16,4.216651973314583C13.117936942762416,3.70188326874358,10.081379088345578,2.9614011305353833,7.431919610878753,4.207049059269895C4.534802719675611,5.569133546887483,1.8980907727674245,8.06488313028202,1.1795099214616478,11.184530865658514C0.4767920808241678,14.235310908251822,2.3449175074326316,17.192584261600267,3.8026512624379905,19.963158846655467C5.033861144777336,22.303201256433965,6.677298572899302,24.336281403258692,8.873813300188992,25.808354535522003C11.001864196269793,27.234544175540865,13.438558600380196,28.097208770581375,16,28.13764961529523" fill="#ff6a00" strokewidth="0"></path></g><g id="SVGRepo_tracerCarrier" stroke-linecap="round" stroke-linejoin="round" stroke="#CCCCCC" stroke-width="0.048"></g><g id="SVGRepo_iconCarrier"><path d="M12 12c2.21 0 4-1.79 4-4s-1.79-4-4-4-4 1.79-4 4 1.79 4 4 4zm0 2c-2.67 0-8 1.34-8 4v2h16v-2c0-2.66-5.33-4-8-4z"></path></g></svg>