<svg fill="#ffffff" viewBox="-3.2 -3.2 38.40 38.40" xmlns="http://www.w3.org/2000/svg"><g id="SVGRepo_bgCarrier" stroke-width="0" transform="translate(6.4,6.4), scale(0.6)"><path transform="translate(-3.2, -3.2), scale(1.2)" d="M16,28.606256688634552C18.485916691198746,28.04040227081942,20.471709770704667,26.49166948984359,22.509368464599163,24.95937706835949C24.508529713807583,23.45603421674974,26.820694572471243,22.14293771563284,27.705990114465784,19.803506752097626C28.610929585256414,17.412165874763996,28.213319910870798,14.715817104407707,27.287712802141357,12.332399785163943C26.398374702114193,10.04237434102308,24.44694411212062,8.517239520634586,22.665846038326965,6.8252500282023725C20.569049848321445,4.833356839690475,18.89201917760001,1.6298532862925095,16,1.6094128054877128C13.109129880361333,1.5889804461011234,11.685233841067246,5.148871527421134,9.26534069809054,6.730536696318804C6.648339115477327,8.441033815657612,2.7158942058175333,8.437425203417998,1.2936559090325215,11.221619145266247C-0.15129734377518056,14.050280208475723,1.2661354675554763,17.44750843658336,2.2476858617666924,20.468397732294264C3.229235116154742,23.489283520004328,4.1773934306453295,26.892347594100293,6.910995168624762,28.50994192498002C9.583919733406042,30.09163086041919,12.971619775040748,29.29558885136718,16,28.606256688634552" fill="#F53F5B" strokewidth="0"></path></g><g id="SVGRepo_tracerCarrier" stroke-linecap="round" stroke-linejoin="round"></g><g id="SVGRepo_iconCarrier"><path d="M16 15.503A5.041 5.041 0 1 0 16 5.42a5.041 5.041 0 0 0 0 10.083zm0 2.215c-6.703 0-11 3.699-11 5.5v3.363h22v-3.363c0-2.178-4.068-5.5-11-5.5z"></path></g></svg>