<svg fill="#ffffff" viewBox="-3.2 -3.2 38.40 38.40" xmlns="http://www.w3.org/2000/svg" stroke="#ffffff"><g id="SVGRepo_bgCarrier" stroke-width="0" transform="translate(6.4,6.4), scale(0.6)"><path transform="translate(-3.2, -3.2), scale(1.2)" d="M16,27.4298301967127C18.401345349273925,27.610523588348936,20.17746394405968,31.281026785983983,22.454099920697708,30.49614576433934C24.620952563906478,29.749113066179753,23.754970808057607,26.060806878532414,25.179415855868935,24.26518316091611C26.489357149557545,22.61390032677213,29.350648699665904,22.53259396712375,30.274410003562117,20.638036962261364C31.177094203039374,18.786707331884926,30.38473840436725,16.543875789728478,29.922925971714932,14.536641513082278C29.489655957179284,12.65346478866159,28.404533483674594,11.051494030901258,27.658660082770403,9.268869462822167C26.820673722126198,7.266096509143086,27.02536657698819,4.51596840001264,25.22345934807666,3.3049973091064526C23.401245777416268,2.0803793486914564,20.904628158648325,3.264671211505722,18.7091680107163,3.254366605148274C16.882737770328333,3.245794076658397,15.116138305828832,3.249710373812139,13.289688091597363,3.248984989650923C11.081094192118838,3.2481078351461052,8.70460470738737,2.2477799923295145,6.736300519833346,3.249611518820407C4.801926371536105,4.2341732639241245,3.606120970977809,6.408125555955799,2.992456419138515,8.490091212093823C2.4022850786438865,10.492351988708686,3.3445098304649936,12.58519033261997,3.369384926664708,14.672468861781958C3.3915288090126183,16.530570225732188,2.9202153414350174,18.334986816230025,3.131784198754504,20.18113676920017C3.3697680006472908,22.257783541501645,3.4575974343852938,24.495515530231067,4.688692460947257,26.184747054459727C5.93145606739234,27.88998947350663,7.86694985916923,29.32546386098755,9.964332321826397,29.55633156024296C12.108055173091412,29.792300140759167,13.849409029695266,27.268005252806102,16,27.4298301967127" fill="#F53F5B" strokewidth="0"></path></g><g id="SVGRepo_tracerCarrier" stroke-linecap="round" stroke-linejoin="round"></g><g id="SVGRepo_iconCarrier"><path d="M16 15.503A5.041 5.041 0 1 0 16 5.42a5.041 5.041 0 0 0 0 10.083zm0 2.215c-6.703 0-11 3.699-11 5.5v3.363h22v-3.363c0-2.178-4.068-5.5-11-5.5z"></path></g></svg>